<?xml version="1.0" encoding="UTF-8" standalone="no"?>
<!-- Created with Inkscape (http://www.inkscape.org/) -->

<svg
   xmlns:dc="http://purl.org/dc/elements/1.1/"
   xmlns:cc="http://creativecommons.org/ns#"
   xmlns:rdf="http://www.w3.org/1999/02/22-rdf-syntax-ns#"
   xmlns:svg="http://www.w3.org/2000/svg"
   xmlns="http://www.w3.org/2000/svg"
   xmlns:sodipodi="http://sodipodi.sourceforge.net/DTD/sodipodi-0.dtd"
   xmlns:inkscape="http://www.inkscape.org/namespaces/inkscape"
   width="64"
   height="64"
   viewBox="0 0 64.000001 64.000001"
   id="svg2"
   version="1.1"
   inkscape:version="0.91 r13725"
   sodipodi:docname="3x3.svg">
  <sodipodi:namedview
     id="base"
     pagecolor="#ffffff"
     bordercolor="#666666"
     borderopacity="1.0"
     inkscape:pageopacity="0.0"
     inkscape:pageshadow="2"
     inkscape:zoom="7.2257474"
     inkscape:cx="25.910665"
     inkscape:cy="34.629486"
     inkscape:document-units="px"
     inkscape:current-layer="layer1"
     showgrid="false"
     units="px"
     inkscape:snap-page="true"
     inkscape:window-width="1436"
     inkscape:window-height="856"
     inkscape:window-x="4"
     inkscape:window-y="0"
     inkscape:window-maximized="1"
     inkscape:snap-intersection-paths="true"
     inkscape:snap-smooth-nodes="false"
     inkscape:object-nodes="true">
    <sodipodi:guide
       id="guide5260"
       position="21.3333,0"
       orientation="64.0,0" />
    <sodipodi:guide
       id="guide5262"
       position="42.6667,0"
       orientation="64.0,0" />
    <sodipodi:guide
       id="guide5264"
       position="0,21.3333"
       orientation="0,64.0" />
    <sodipodi:guide
       id="guide5266"
       position="0,42.6667"
       orientation="0,64.0" />
  </sodipodi:namedview>
  <defs
     id="defs4" />
  <metadata
     id="metadata7">
    <rdf:RDF>
      <cc:Work
         rdf:about="">
        <dc:format>image/svg+xml</dc:format>
        <dc:type
           rdf:resource="http://purl.org/dc/dcmitype/StillImage" />
        <dc:title></dc:title>
      </cc:Work>
    </rdf:RDF>
  </metadata>
  <g
     transform="translate(0,-988.36216)"
     id="layer1"
     inkscape:groupmode="layer"
     inkscape:label="Layer 1">
    <path
       style="fill:#000000;fill-opacity:1;stroke:none;stroke-width:5;stroke-linecap:butt;stroke-linejoin:miter;stroke-miterlimit:4;stroke-dasharray:none;stroke-dashoffset:0;stroke-opacity:1"
       d="m 2.5,990.86216 0,16.33394 16.333984,0 0,-16.33394 -16.333984,0 z m 21.333984,0 0,16.33394 16.332032,0 0,-16.33394 -16.332032,0 z m 21.332032,0 0,16.33394 16.333984,0 0,-16.33394 -16.333984,0 z M 2.5,1012.1961 l 0,16.334 16.333984,0 0,-16.334 -16.333984,0 z m 21.333984,0 0,16.334 16.332032,0 0,-16.334 -16.332032,0 z m 21.332032,0 0,16.334 16.333984,0 0,-16.334 -16.333984,0 z M 2.5,1033.5301 l 0,16.3321 16.333984,0 0,-16.3321 -16.333984,0 z m 21.333984,0 0,16.3321 16.332032,0 0,-16.3321 -16.332032,0 z m 21.332032,0 0,16.3321 16.333984,0 0,-16.3321 -16.333984,0 z"
       id="rect5279"
       inkscape:connector-curvature="0" />
  </g>
</svg>
