<?xml version="1.0" encoding="UTF-8" standalone="no"?>
<!-- Created with Inkscape (http://www.inkscape.org/) -->

<svg
   xmlns:dc="http://purl.org/dc/elements/1.1/"
   xmlns:cc="http://creativecommons.org/ns#"
   xmlns:rdf="http://www.w3.org/1999/02/22-rdf-syntax-ns#"
   xmlns:svg="http://www.w3.org/2000/svg"
   xmlns="http://www.w3.org/2000/svg"
   xmlns:sodipodi="http://sodipodi.sourceforge.net/DTD/sodipodi-0.dtd"
   xmlns:inkscape="http://www.inkscape.org/namespaces/inkscape"
   width="64"
   height="64"
   viewBox="0 0 64.000001 64.000001"
   id="svg5350"
   version="1.1"
   inkscape:version="0.91 r13725"
   sodipodi:docname="4x4.svg">
  <sodipodi:namedview
     id="base"
     pagecolor="#ffffff"
     bordercolor="#666666"
     borderopacity="1.0"
     inkscape:pageopacity="0.0"
     inkscape:pageshadow="2"
     inkscape:zoom="7.2257474"
     inkscape:cx="32"
     inkscape:cy="32"
     inkscape:document-units="px"
     inkscape:current-layer="layer1"
     showgrid="false"
     units="px"
     inkscape:window-width="1436"
     inkscape:window-height="856"
     inkscape:window-x="4"
     inkscape:window-y="0"
     inkscape:window-maximized="1"
     inkscape:snap-page="true"
     inkscape:object-nodes="true"
     inkscape:snap-intersection-paths="true">
    <sodipodi:guide
       id="guide5901"
       position="16.0,0"
       orientation="64.0,0" />
    <sodipodi:guide
       id="guide5903"
       position="32.0,0"
       orientation="64.0,0" />
    <sodipodi:guide
       id="guide5905"
       position="48.0,0"
       orientation="64.0,0" />
    <sodipodi:guide
       id="guide5907"
       position="0,16.0"
       orientation="0,64.0" />
    <sodipodi:guide
       id="guide5909"
       position="0,32.0"
       orientation="0,64.0" />
    <sodipodi:guide
       id="guide5911"
       position="0,48.0"
       orientation="0,64.0" />
  </sodipodi:namedview>
  <defs
     id="defs5352" />
  <metadata
     id="metadata5355">
    <rdf:RDF>
      <cc:Work
         rdf:about="">
        <dc:format>image/svg+xml</dc:format>
        <dc:type
           rdf:resource="http://purl.org/dc/dcmitype/StillImage" />
        <dc:title></dc:title>
      </cc:Work>
    </rdf:RDF>
  </metadata>
  <g
     transform="translate(0,-988.36211)"
     id="layer1"
     inkscape:groupmode="layer"
     inkscape:label="Layer 1">
    <path
       style="fill:#000000;fill-opacity:1;stroke:none;stroke-width:5;stroke-linecap:butt;stroke-linejoin:miter;stroke-miterlimit:4;stroke-dasharray:none;stroke-dashoffset:0;stroke-opacity:1"
       d="M 2.5 2.5 L 2.5 13.5 L 13.5 13.5 L 13.5 2.5 L 2.5 2.5 z M 18.5 2.5 L 18.5 13.5 L 29.5 13.5 L 29.5 2.5 L 18.5 2.5 z M 34.5 2.5 L 34.5 13.5 L 45.5 13.5 L 45.5 2.5 L 34.5 2.5 z M 50.5 2.5 L 50.5 13.5 L 61.5 13.5 L 61.5 2.5 L 50.5 2.5 z M 2.5 18.5 L 2.5 29.5 L 13.5 29.5 L 13.5 18.5 L 2.5 18.5 z M 18.5 18.5 L 18.5 29.5 L 29.5 29.5 L 29.5 18.5 L 18.5 18.5 z M 34.5 18.5 L 34.5 29.5 L 45.5 29.5 L 45.5 18.5 L 34.5 18.5 z M 50.5 18.5 L 50.5 29.5 L 61.5 29.5 L 61.5 18.5 L 50.5 18.5 z M 2.5 34.5 L 2.5 45.5 L 13.5 45.5 L 13.5 34.5 L 2.5 34.5 z M 18.5 34.5 L 18.5 45.5 L 29.5 45.5 L 29.5 34.5 L 18.5 34.5 z M 34.5 34.5 L 34.5 45.5 L 45.5 45.5 L 45.5 34.5 L 34.5 34.5 z M 50.5 34.5 L 50.5 45.5 L 61.5 45.5 L 61.5 34.5 L 50.5 34.5 z M 2.5 50.5 L 2.5 61.5 L 13.5 61.5 L 13.5 50.5 L 2.5 50.5 z M 18.5 50.5 L 18.5 61.5 L 29.5 61.5 L 29.5 50.5 L 18.5 50.5 z M 34.5 50.5 L 34.5 61.5 L 45.5 61.5 L 45.5 50.5 L 34.5 50.5 z M 50.5 50.5 L 50.5 61.5 L 61.5 61.5 L 61.5 50.5 L 50.5 50.5 z "
       transform="translate(0,988.36211)"
       id="rect5926" />
  </g>
</svg>
