<?xml version="1.0" encoding="UTF-8" standalone="no"?>
<!-- Created with Inkscape (http://www.inkscape.org/) -->

<svg
   xmlns:dc="http://purl.org/dc/elements/1.1/"
   xmlns:cc="http://creativecommons.org/ns#"
   xmlns:rdf="http://www.w3.org/1999/02/22-rdf-syntax-ns#"
   xmlns:svg="http://www.w3.org/2000/svg"
   xmlns="http://www.w3.org/2000/svg"
   xmlns:sodipodi="http://sodipodi.sourceforge.net/DTD/sodipodi-0.dtd"
   xmlns:inkscape="http://www.inkscape.org/namespaces/inkscape"
   width="64"
   height="64"
   viewBox="0 0 64.000001 64.000001"
   id="svg6728"
   version="1.1"
   inkscape:version="0.91 r13725"
   sodipodi:docname="666.svg">
  <sodipodi:namedview
     id="base"
     pagecolor="#ffffff"
     bordercolor="#666666"
     borderopacity="1.0"
     inkscape:pageopacity="0.0"
     inkscape:pageshadow="2"
     inkscape:zoom="7.2257474"
     inkscape:cx="32"
     inkscape:cy="32"
     inkscape:document-units="px"
     inkscape:current-layer="layer1"
     showgrid="false"
     units="px"
     inkscape:window-width="1436"
     inkscape:window-height="856"
     inkscape:window-x="4"
     inkscape:window-y="0"
     inkscape:window-maximized="1"
     inkscape:snap-page="true"
     inkscape:object-nodes="true"
     inkscape:snap-intersection-paths="true">
    <sodipodi:guide
       id="guide7827"
       position="10.6667,0"
       orientation="64.0,0" />
    <sodipodi:guide
       id="guide7829"
       position="21.3333,0"
       orientation="64.0,0" />
    <sodipodi:guide
       id="guide7831"
       position="32.0,0"
       orientation="64.0,0" />
    <sodipodi:guide
       id="guide7833"
       position="42.6667,0"
       orientation="64.0,0" />
    <sodipodi:guide
       id="guide7835"
       position="53.3333,0"
       orientation="64.0,0" />
    <sodipodi:guide
       id="guide7837"
       position="0,10.6667"
       orientation="0,64.0" />
    <sodipodi:guide
       id="guide7839"
       position="0,21.3333"
       orientation="0,64.0" />
    <sodipodi:guide
       id="guide7841"
       position="0,32.0"
       orientation="0,64.0" />
    <sodipodi:guide
       id="guide7843"
       position="0,42.6667"
       orientation="0,64.0" />
    <sodipodi:guide
       id="guide7845"
       position="0,53.3333"
       orientation="0,64.0" />
  </sodipodi:namedview>
  <defs
     id="defs6730" />
  <metadata
     id="metadata6733">
    <rdf:RDF>
      <cc:Work
         rdf:about="">
        <dc:format>image/svg+xml</dc:format>
        <dc:type
           rdf:resource="http://purl.org/dc/dcmitype/StillImage" />
        <dc:title></dc:title>
      </cc:Work>
    </rdf:RDF>
  </metadata>
  <g
     transform="translate(0,-988.36216)"
     id="layer1"
     inkscape:groupmode="layer"
     inkscape:label="Layer 1">
    <path
       style="fill:#000000;fill-opacity:1;stroke:none;stroke-width:3;stroke-linecap:butt;stroke-linejoin:miter;stroke-miterlimit:4;stroke-dasharray:none;stroke-dashoffset:0;stroke-opacity:1"
       d="M 1.5 1.5 L 1.5 9.1679688 L 9.1660156 9.1679688 L 9.1660156 1.5 L 1.5 1.5 z M 12.166016 1.5 L 12.166016 9.1679688 L 19.833984 9.1679688 L 19.833984 1.5 L 12.166016 1.5 z M 22.833984 1.5 L 22.833984 9.1679688 L 30.5 9.1679688 L 30.5 1.5 L 22.833984 1.5 z M 33.5 1.5 L 33.5 9.1679688 L 41.166016 9.1679688 L 41.166016 1.5 L 33.5 1.5 z M 44.166016 1.5 L 44.166016 9.1679688 L 51.833984 9.1679688 L 51.833984 1.5 L 44.166016 1.5 z M 54.833984 1.5 L 54.833984 9.1679688 L 62.5 9.1679688 L 62.5 1.5 L 54.833984 1.5 z M 1.5 12.167969 L 1.5 19.833984 L 9.1660156 19.833984 L 9.1660156 12.167969 L 1.5 12.167969 z M 12.166016 12.167969 L 12.166016 19.833984 L 19.833984 19.833984 L 19.833984 12.167969 L 12.166016 12.167969 z M 22.833984 12.167969 L 22.833984 19.833984 L 30.5 19.833984 L 30.5 12.167969 L 22.833984 12.167969 z M 33.5 12.167969 L 33.5 19.833984 L 41.166016 19.833984 L 41.166016 12.167969 L 33.5 12.167969 z M 44.166016 12.167969 L 44.166016 19.833984 L 51.833984 19.833984 L 51.833984 12.167969 L 44.166016 12.167969 z M 54.833984 12.167969 L 54.833984 19.833984 L 62.5 19.833984 L 62.5 12.167969 L 54.833984 12.167969 z M 1.5 22.833984 L 1.5 30.5 L 9.1660156 30.5 L 9.1660156 22.833984 L 1.5 22.833984 z M 12.166016 22.833984 L 12.166016 30.5 L 19.833984 30.5 L 19.833984 22.833984 L 12.166016 22.833984 z M 22.833984 22.833984 L 22.833984 30.5 L 30.5 30.5 L 30.5 22.833984 L 22.833984 22.833984 z M 33.5 22.833984 L 33.5 30.5 L 41.166016 30.5 L 41.166016 22.833984 L 33.5 22.833984 z M 44.166016 22.833984 L 44.166016 30.5 L 51.833984 30.5 L 51.833984 22.833984 L 44.166016 22.833984 z M 54.833984 22.833984 L 54.833984 30.5 L 62.5 30.5 L 62.5 22.833984 L 54.833984 22.833984 z M 1.5 33.5 L 1.5 41.167969 L 9.1660156 41.167969 L 9.1660156 33.5 L 1.5 33.5 z M 12.166016 33.5 L 12.166016 41.167969 L 19.833984 41.167969 L 19.833984 33.5 L 12.166016 33.5 z M 22.833984 33.5 L 22.833984 41.167969 L 30.5 41.167969 L 30.5 33.5 L 22.833984 33.5 z M 33.5 33.5 L 33.5 41.167969 L 41.166016 41.167969 L 41.166016 33.5 L 33.5 33.5 z M 44.166016 33.5 L 44.166016 41.167969 L 51.833984 41.167969 L 51.833984 33.5 L 44.166016 33.5 z M 54.833984 33.5 L 54.833984 41.167969 L 62.5 41.167969 L 62.5 33.5 L 54.833984 33.5 z M 1.5 44.167969 L 1.5 51.833984 L 9.1660156 51.833984 L 9.1660156 44.167969 L 1.5 44.167969 z M 12.166016 44.167969 L 12.166016 51.833984 L 19.833984 51.833984 L 19.833984 44.167969 L 12.166016 44.167969 z M 22.833984 44.167969 L 22.833984 51.833984 L 30.5 51.833984 L 30.5 44.167969 L 22.833984 44.167969 z M 33.5 44.167969 L 33.5 51.833984 L 41.166016 51.833984 L 41.166016 44.167969 L 33.5 44.167969 z M 44.166016 44.167969 L 44.166016 51.833984 L 51.833984 51.833984 L 51.833984 44.167969 L 44.166016 44.167969 z M 54.833984 44.167969 L 54.833984 51.833984 L 62.5 51.833984 L 62.5 44.167969 L 54.833984 44.167969 z M 1.5 54.833984 L 1.5 62.5 L 9.1660156 62.5 L 9.1660156 54.833984 L 1.5 54.833984 z M 12.166016 54.833984 L 12.166016 62.5 L 19.833984 62.5 L 19.833984 54.833984 L 12.166016 54.833984 z M 22.833984 54.833984 L 22.833984 62.5 L 30.5 62.5 L 30.5 54.833984 L 22.833984 54.833984 z M 33.5 54.833984 L 33.5 62.5 L 41.166016 62.5 L 41.166016 54.833984 L 33.5 54.833984 z M 44.166016 54.833984 L 44.166016 62.5 L 51.833984 62.5 L 51.833984 54.833984 L 44.166016 54.833984 z M 54.833984 54.833984 L 54.833984 62.5 L 62.5 62.5 L 62.5 54.833984 L 54.833984 54.833984 z "
       transform="translate(0,988.36216)"
       id="rect7862" />
  </g>
</svg>
