<?xml version="1.0" encoding="UTF-8" standalone="no"?>
<!-- Created with Inkscape (http://www.inkscape.org/) -->

<svg
   xmlns:dc="http://purl.org/dc/elements/1.1/"
   xmlns:cc="http://creativecommons.org/ns#"
   xmlns:rdf="http://www.w3.org/1999/02/22-rdf-syntax-ns#"
   xmlns:svg="http://www.w3.org/2000/svg"
   xmlns="http://www.w3.org/2000/svg"
   xmlns:sodipodi="http://sodipodi.sourceforge.net/DTD/sodipodi-0.dtd"
   xmlns:inkscape="http://www.inkscape.org/namespaces/inkscape"
   width="32mm"
   height="32mm"
   viewBox="0 0 113.38583 113.38582"
   id="svg2"
   version="1.1"
   inkscape:version="0.91 r13725"
   sodipodi:docname="Logo.svg"
   inkscape:export-filename="/Users/jonathanloov/RustNet/Static/favicon.ico"
   inkscape:export-xdpi="25.4"
   inkscape:export-ydpi="25.4">
  <defs
     id="defs4">
    <inkscape:perspective
       sodipodi:type="inkscape:persp3d"
       inkscape:vp_x="0 : 526.18106 : 1"
       inkscape:vp_y="0 : 999.99993 : 0"
       inkscape:vp_z="744.09451 : 526.18106 : 1"
       inkscape:persp3d-origin="372.04725 : 350.78738 : 1"
       id="perspective4136" />
  </defs>
  <sodipodi:namedview
     id="base"
     pagecolor="#ffffff"
     bordercolor="#666666"
     borderopacity="1.0"
     inkscape:pageopacity="0.0"
     inkscape:pageshadow="2"
     inkscape:zoom="4"
     inkscape:cx="33.512324"
     inkscape:cy="36.604003"
     inkscape:document-units="px"
     inkscape:current-layer="layer1"
     showgrid="false"
     showguides="true"
     inkscape:guide-bbox="true"
     inkscape:object-nodes="true"
     inkscape:snap-object-midpoints="true"
     inkscape:snap-intersection-paths="true"
     fit-margin-top="0"
     fit-margin-left="0"
     fit-margin-right="0"
     fit-margin-bottom="0"
     inkscape:window-width="1436"
     inkscape:window-height="856"
     inkscape:window-x="4"
     inkscape:window-y="0"
     inkscape:window-maximized="1" />
  <metadata
     id="metadata7">
    <rdf:RDF>
      <cc:Work
         rdf:about="">
        <dc:format>image/svg+xml</dc:format>
        <dc:type
           rdf:resource="http://purl.org/dc/dcmitype/StillImage" />
        <dc:title></dc:title>
      </cc:Work>
    </rdf:RDF>
  </metadata>
  <g
     inkscape:label="Layer 1"
     inkscape:groupmode="layer"
     id="layer1"
     transform="translate(-159.12307,-555.72547)">
    <path
       style="fill:#ff8500;fill-opacity:1;stroke:#000000;stroke-width:0.9796139;stroke-linecap:round;stroke-linejoin:round;stroke-miterlimit:4;stroke-dasharray:none;stroke-dashoffset:0;stroke-opacity:1"
       d="m 215.81599,667.33972 0,-54.92166 -47.56298,-27.46018 0,54.921 47.56298,27.46084 z"
       id="path4198"
       inkscape:connector-curvature="0" />
    <path
       style="fill:#00ff00;fill-opacity:1;stroke:#000000;stroke-width:0.9796139;stroke-linecap:round;stroke-linejoin:round;stroke-miterlimit:4;stroke-dasharray:none;stroke-dashoffset:0;stroke-opacity:1"
       d="m 263.37897,584.95788 -47.56298,27.46018 0,54.92166 47.56298,-27.46084 0,-54.921 z"
       id="path4196"
       inkscape:connector-curvature="0" />
    <path
       style="fill:#ffffff;fill-opacity:1;stroke:#000000;stroke-width:0.9796139;stroke-linecap:round;stroke-linejoin:round;stroke-miterlimit:4;stroke-dasharray:none;stroke-dashoffset:0;stroke-opacity:1"
       d="m 215.81599,557.49705 -47.56298,27.46083 47.56298,27.46018 47.56298,-27.46018 -47.56298,-27.46083 z"
       id="path4152"
       inkscape:connector-curvature="0" />
    <ellipse
       style="fill:#ffff00;fill-opacity:1;stroke:#000000;stroke-width:0.9796139;stroke-linecap:round;stroke-linejoin:round;stroke-miterlimit:4;stroke-dasharray:none;stroke-dashoffset:0;stroke-opacity:1"
       id="path4210"
       cx="215.81599"
       cy="584.95795"
       rx="6.3125615"
       ry="3.9013774" />
    <path
       id="ellipse4228"
       style="fill:#ff0000;fill-opacity:1;stroke:#000000;stroke-width:0.9796139;stroke-linecap:round;stroke-linejoin:round;stroke-miterlimit:4;stroke-dasharray:none;stroke-dashoffset:0;stroke-opacity:1"
       d="m 207.08138,624.75011 a 6.3125616,3.9013776 60 0 1 -6.53497,-3.51616 6.3125616,3.9013776 60 0 1 0.22241,-7.41752 6.3125616,3.9013776 60 0 1 6.53497,3.51615 6.3125616,3.9013776 60 0 1 -0.22241,7.41753 z M 183.1448,638.5699 a 6.3125616,3.9013776 60 0 1 -6.53497,-3.51616 6.3125616,3.9013776 60 0 1 0.22241,-7.41752 6.3125616,3.9013776 60 0 1 6.53497,3.51615 6.3125616,3.9013776 60 0 1 -0.22241,7.41753 z"
       inkscape:connector-curvature="0" />
    <path
       id="ellipse4240"
       style="fill:#0000ff;fill-opacity:1;stroke:#000000;stroke-width:0.9796139;stroke-linecap:round;stroke-linejoin:round;stroke-miterlimit:4;stroke-dasharray:none;stroke-dashoffset:0;stroke-opacity:1"
       d="m 236.44134,631.61523 a 3.9013775,6.3125616 30 0 0 6.53497,-3.51614 3.9013775,6.3125616 30 0 0 -0.22241,-7.41754 3.9013775,6.3125616 30 0 0 -6.53496,3.51616 3.9013775,6.3125616 30 0 0 0.2224,7.41752 z m -11.89074,-6.86512 a 3.9013775,6.3125616 30 0 0 6.53496,-3.51616 3.9013775,6.3125616 30 0 0 -0.2224,-7.41752 3.9013775,6.3125616 30 0 0 -6.53497,3.51615 3.9013775,6.3125616 30 0 0 0.22241,7.41753 z m 23.93656,13.81979 a 3.9013775,6.3125616 30 0 0 6.53497,-3.51617 3.9013775,6.3125616 30 0 0 -0.22241,-7.41752 3.9013775,6.3125616 30 0 0 -6.53497,3.51615 3.9013775,6.3125616 30 0 0 0.22241,7.41754 z"
       inkscape:connector-curvature="0" />
  </g>
</svg>
